<?xml version="1.0" encoding="UTF-8"?>
<svg version="1.1" xmlns="http://www.w3.org/2000/svg" width="502" height="503">
<path d="M0 0 C0.83644043 0.34256836 1.67288086 0.68513672 2.53466797 1.03808594 C22.91301848 9.49851159 41.52130449 20.56809606 59 34 C60.00160156 34.76828125 61.00320313 35.5365625 62.03515625 36.328125 C76.3599274 47.72043195 89.63134475 60.67699026 101 75 C102.175625 76.45019531 102.175625 76.45019531 103.375 77.9296875 C120.68304296 99.73116469 134.09892934 124.65303441 143 151 C143.41306396 152.21453857 143.41306396 152.21453857 143.83447266 153.45361328 C148.47875199 167.35845684 151.53966 181.55994254 154 196 C154.13422363 196.78036621 154.26844727 197.56073242 154.40673828 198.36474609 C158.39197882 223.01046009 157.58619205 250.54783237 153 275 C152.83371094 275.92312988 152.66742188 276.84625977 152.49609375 277.79736328 C146.33344596 311.25255216 133.14316338 345.37613283 113 373 C112.55011719 373.62213379 112.10023438 374.24426758 111.63671875 374.88525391 C105.50140987 383.34153881 99.12547886 391.34773477 92 399 C90.84957817 400.32937633 89.70355612 401.66257608 88.5625 403 C81.08242627 411.54619918 72.88262566 418.9480461 64 426 C62.86884766 426.94939453 62.86884766 426.94939453 61.71484375 427.91796875 C23.17122915 459.9825538 -29.41264352 480.83012455 -79.74609375 481.23828125 C-80.74690475 481.2480751 -81.74771576 481.25786896 -82.77885437 481.26795959 C-124.57622762 481.59298937 -124.57622762 481.59298937 -145 477 C-146.46832275 476.67854004 -146.46832275 476.67854004 -147.96630859 476.35058594 C-188.99564642 467.12251094 -226.5506148 447.82870632 -258 420 C-258.87011719 419.24074219 -259.74023438 418.48148437 -260.63671875 417.69921875 C-270.63814119 408.859657 -279.77530583 399.51729185 -288 389 C-288.80179687 387.99195313 -289.60359375 386.98390625 -290.4296875 385.9453125 C-320.95633925 347.28340071 -341.93187588 297.63546477 -342.23828125 247.90234375 C-342.246353 246.63644913 -342.25442474 245.3705545 -342.26274109 244.06629944 C-342.27654077 241.38587844 -342.28756513 238.7055785 -342.29516602 236.02514648 C-342.30393384 233.32666805 -342.32459728 230.62872013 -342.35668945 227.93041992 C-343.06371758 163.67775799 -317.00997734 103.28639524 -272.40625 57.25 C-254.97961448 39.57197443 -235.58206585 25.23924127 -214 13 C-212.76293469 12.27749122 -211.52594844 11.55484706 -210.2890625 10.83203125 C-182.27389717 -4.93830339 -149.89006516 -13.83762402 -118 -17 C-116.88882813 -17.11214844 -115.77765625 -17.22429688 -114.6328125 -17.33984375 C-75.64910998 -20.68785585 -36.16580128 -14.94639135 0 0 Z " fill="#F26A2C" transform="translate(342,22)"/>
<path d="M0 0 C0.94147888 -0.00960754 1.88295776 -0.01921509 2.85296631 -0.02911377 C3.87376282 -0.03336365 4.89455933 -0.03761353 5.94628906 -0.04199219 C6.99463928 -0.04769226 8.0429895 -0.05339233 9.12310791 -0.05926514 C11.34573352 -0.06872452 13.56837322 -0.07525283 15.79101562 -0.07910156 C19.18417036 -0.08878799 22.57671458 -0.11979511 25.96972656 -0.15136719 C28.12857713 -0.15789908 30.28743203 -0.16314882 32.44628906 -0.16699219 C33.96533844 -0.18551239 33.96533844 -0.18551239 35.51507568 -0.20440674 C42.32235823 -0.18299431 46.66066002 0.77374989 51.97363281 5.30175781 C55.14691337 8.94829057 57.69203951 12.83278699 60.27441406 16.91113281 C60.82919434 17.77585205 61.38397461 18.64057129 61.95556641 19.53149414 C63.79688605 22.40432909 65.62927777 25.28275226 67.46191406 28.16113281 C68.80110006 30.25400176 70.14095816 32.34644077 71.48144531 34.43847656 C74.21970862 38.71287065 76.95505161 42.98911202 79.68847656 47.26660156 C82.76362777 52.07525637 85.85500949 56.87294903 88.96191406 61.66113281 C93.49142482 68.64232564 97.97927802 75.64976329 102.46191406 82.66113281 C105.12788386 86.82824577 107.79466534 90.99483836 110.46191406 95.16113281 C111.04166992 96.06718262 111.62142578 96.97323242 112.21875 97.90673828 C113.7553732 100.30582667 115.29544608 102.7026554 116.83691406 105.09863281 C117.28292969 105.79601562 117.72894531 106.49339844 118.18847656 107.21191406 C119.81493348 109.73395169 121.33310817 112.03232692 123.46191406 114.16113281 C123.92078003 113.43132202 123.92078003 113.43132202 124.38891602 112.68676758 C130.21702627 103.42320823 136.07251359 94.17993532 142.03344727 85.0012207 C146.2048411 78.57274824 150.33478551 72.118092 154.46191406 65.66113281 C159.36229154 57.99559124 164.26748203 50.33373623 169.23266602 42.70996094 C171.99699154 38.45667735 174.71432286 34.17634338 177.41113281 29.87988281 C178.11109375 28.77064453 178.81105469 27.66140625 179.53222656 26.51855469 C180.90487622 24.34181597 182.27116952 22.16105081 183.62988281 19.97558594 C194.43769933 2.88136808 194.43769933 2.88136808 202.46191406 0.16113281 C204.84507751 -0.10629272 204.84507751 -0.10629272 207.34057617 -0.12939453 C208.28182846 -0.14215424 209.22308075 -0.15491394 210.19285583 -0.1680603 C211.19816849 -0.17028595 212.20348114 -0.1725116 213.23925781 -0.17480469 C214.80541588 -0.18478989 214.80541588 -0.18478989 216.4032135 -0.19497681 C218.60790244 -0.20508652 220.81262189 -0.20979435 223.01733398 -0.20947266 C226.38414006 -0.21384734 229.74963649 -0.25019014 233.11621094 -0.28808594 C235.26138876 -0.29395417 237.40657279 -0.29792352 239.55175781 -0.29980469 C240.55504623 -0.31417572 241.55833466 -0.32854675 242.59202576 -0.34335327 C248.51841634 -0.30473992 251.95585191 0.1934321 256.46191406 4.16113281 C258.1876625 7.61262968 257.80833447 11.59938381 257.95507812 15.40551758 C257.99606534 16.37362555 258.03705256 17.34173351 258.07928181 18.33917809 C258.16869176 20.46510345 258.25597113 22.5911192 258.34143257 24.71720695 C258.47973496 28.15715699 258.62345299 31.59684408 258.76853943 35.03651428 C258.97737638 39.99970163 259.18394015 44.96297597 259.38876343 49.92633057 C259.93152363 63.05598154 260.49361546 76.18480738 261.05957031 89.31347656 C261.10255985 90.31204178 261.10255985 90.31204178 261.14641786 91.33078003 C262.30101809 118.13748288 263.59515398 144.93607635 264.99040222 171.73133469 C265.14727427 174.74502505 265.30337862 177.75875439 265.45935059 180.77249146 C266.66443899 204.19995338 266.66443899 204.19995338 268.05029297 227.6171875 C268.09754548 228.36753202 268.14479799 229.11787655 268.1934824 229.89095879 C268.41122738 233.33857069 268.6345228 236.78552636 268.86857605 240.23208618 C270.76438636 269.59378541 270.76438636 269.59378541 265.46191406 277.16113281 C257.61858521 285.38070992 247.05779856 291.21516053 237.46191406 297.16113281 C236.35332031 297.86238281 235.24472656 298.56363281 234.10253906 299.28613281 C226.63548468 303.8027901 218.87139172 307.27810069 210.83691406 310.66113281 C209.78044678 311.107229 208.72397949 311.5533252 207.63549805 312.01293945 C206.13805054 312.62770142 206.13805054 312.62770142 204.61035156 313.25488281 C203.267229 313.80692383 203.267229 313.80692383 201.89697266 314.37011719 C199.46191406 315.16113281 199.46191406 315.16113281 195.46191406 315.16113281 C195.42963426 300.89031099 195.41039317 286.61948669 195.39941406 272.34863281 C195.39813004 270.69207735 195.39813004 270.69207735 195.39682007 269.00205612 C195.36671098 224.74074868 195.6252865 180.48341235 195.96191406 136.22363281 C195.96788778 135.43698226 195.97386149 134.65033172 195.98001623 133.83984327 C196.13374886 113.61355011 196.2941698 93.38731481 196.46191406 73.16113281 C193.44441773 75.06072279 190.42804919 76.96209656 187.41186523 78.86376953 C186.1430312 79.66248726 186.1430312 79.66248726 184.84856415 80.4773407 C177.74058036 84.9608002 170.74216115 89.58739571 163.77441406 94.28613281 C155.76887687 99.66323131 147.73788988 104.97652818 139.50708008 110.00463867 C134.97038547 112.78751732 130.68427789 115.82108531 126.47753906 119.07910156 C124.46191406 120.16113281 124.46191406 120.16113281 122.671875 119.9387207 C119.82716934 118.93779411 117.60105774 117.46953052 115.08691406 115.80175781 C113.50064209 114.75616699 113.50064209 114.75616699 111.88232422 113.68945312 C110.74215851 112.93005655 109.60202248 112.17061541 108.46191406 111.41113281 C107.28442493 110.63284591 106.10652352 109.85518241 104.92822266 109.078125 C102.55357055 107.51160824 100.18051197 105.9427231 97.80859375 104.37207031 C93.25225793 101.35805336 88.67101818 98.38268908 84.08691406 95.41113281 C82.49311277 94.37605554 80.89936258 93.34089957 79.30566406 92.30566406 C77.69110026 91.2574569 76.07651624 90.20928086 74.46191406 89.16113281 C70.83660745 86.80743791 67.21167543 84.45316731 63.58691406 82.09863281 C62.7601416 81.56206055 61.93336914 81.02548828 61.08154297 80.47265625 C60.30214355 79.96637695 59.52274414 79.46009766 58.71972656 78.93847656 C58.04055176 78.49753662 57.36137695 78.05659668 56.66162109 77.60229492 C53.91766468 75.80456188 51.19068077 73.98181853 48.46191406 72.16113281 C48.47737526 73.00075341 48.47737526 73.00075341 48.4931488 73.85733604 C48.83393162 92.41663387 49.15489584 110.97624906 49.46191406 129.53613281 C49.47381114 130.25398374 49.48570822 130.97183467 49.49796581 131.71143866 C50.23978397 176.55103568 50.64865364 221.3775493 50.58691406 266.22363281 C50.58434601 268.10278004 50.58434601 268.10278004 50.58172607 270.01988983 C50.55957828 285.06703392 50.52044506 300.11408707 50.46191406 315.16113281 C44.28454791 314.32699416 39.39297974 312.7606719 33.71191406 310.28613281 C32.33471191 309.68828979 32.33471191 309.68828979 30.9296875 309.07836914 C-13.4536564 289.32999189 -13.4536564 289.32999189 -21.53808594 273.16113281 C-23.18988612 267.88489387 -22.70365217 262.31969473 -22.68969727 256.84936523 C-22.68749333 255.60560466 -22.6852894 254.36184408 -22.68301868 253.08039379 C-22.6046948 239.45074477 -21.94838989 225.85657992 -21.22314954 212.24824166 C-21.03173282 208.62380008 -20.84908859 204.99891486 -20.66551208 201.37406921 C-20.3534338 195.23069206 -20.03693091 189.08755843 -19.71710205 182.94458008 C-18.93212833 167.86033815 -18.17166144 152.77484547 -17.41073704 137.68937445 C-17.2921031 135.33911132 -17.17320814 132.98886152 -17.05425262 130.63861465 C-15.59225511 101.73794891 -14.29581339 72.83319132 -13.18870544 43.91670227 C-13.09637467 41.52897664 -13.00162106 39.14134293 -12.90394592 36.75382996 C-12.68926151 31.47109225 -12.51207502 26.19369557 -12.42382812 20.90722656 C-12.39932587 19.93197021 -12.37482361 18.95671387 -12.34957886 17.9519043 C-12.30517935 16.1640371 -12.27886706 14.37557375 -12.27566528 12.5871582 C-12.14750493 8.26597278 -11.92784948 6.64403405 -9.11669922 3.16113281 C-5.74603235 0.54680759 -4.1770977 0.03435563 0 0 Z " fill="#FEFEFD" transform="translate(125.5380859375,148.8388671875)"/>
<path d="M0 0 C8.26979529 6.61583623 12.44502805 13.14758414 15.8125 23.25 C16.91300853 34.91539041 15.05569463 45.49600704 7.5 54.75 C0.56324 61.89787878 -7.31712178 65.49534068 -17.3125 65.75 C-26.27321837 65.60050813 -32.82401017 63.07611424 -39.56640625 57.1640625 C-48.24574229 48.05315726 -50.70551561 38.39343661 -50.46484375 26.08203125 C-49.85356809 17.63609576 -46.07466084 10.2999972 -40.1875 4.25 C-27.77968394 -5.99554192 -14.36853755 -7.88860885 0 0 Z " fill="#FEFDFD" transform="translate(370.1875,73.75)"/>
<path d="M0 0 C6.5374972 5.05432052 10.75860203 12.8051086 12.8984375 20.68359375 C14.21475713 33.68051813 12.22242835 43.76758959 3.8359375 54.12109375 C-3.19247778 61.31161416 -10.77748677 63.90742134 -20.7265625 64.30859375 C-30.21343723 63.96873642 -37.39830193 60.38685432 -44.1015625 53.68359375 C-51.19096471 44.92199839 -53.7344848 36.08423798 -53.45703125 24.8671875 C-52.28209087 14.34436984 -46.10508827 5.35859905 -38.1015625 -1.31640625 C-25.67264365 -9.16127518 -12.18520937 -7.63274267 0 0 Z " fill="#FEFDFD" transform="translate(164.1015625,75.31640625)"/>
</svg>
